<svg id="visual" viewBox="0 0 900 600" width="900" height="600" xmlns="http://www.w3.org/2000/svg" xmlns:xlink="http://www.w3.org/1999/xlink" version="1.1"><path d="M0 109L6.5 93C13 77 26 45 39 39C52 33 65 53 78 64C91 75 104 77 117.2 85C130.3 93 143.7 107 156.8 111C170 115 183 109 196 91C209 73 222 43 235 36C248 29 261 45 274 52C287 59 300 57 313 58C326 59 339 63 352 61C365 59 378 51 391 58C404 65 417 87 430.2 105C443.3 123 456.7 137 469.8 128C483 119 496 87 509 70C522 53 535 51 548 56C561 61 574 73 587 80C600 87 613 89 626 82C639 75 652 59 665 45C678 31 691 19 704 19C717 19 730 31 743.2 57C756.3 83 769.7 123 782.8 122C796 121 809 79 822 51.8C835 24.7 848 12.3 861 10.3C874 8.3 887 16.7 893.5 20.8L900 25L900 0L893.5 0C887 0 874 0 861 0C848 0 835 0 822 0C809 0 796 0 782.8 0C769.7 0 756.3 0 743.2 0C730 0 717 0 704 0C691 0 678 0 665 0C652 0 639 0 626 0C613 0 600 0 587 0C574 0 561 0 548 0C535 0 522 0 509 0C496 0 483 0 469.8 0C456.7 0 443.3 0 430.2 0C417 0 404 0 391 0C378 0 365 0 352 0C339 0 326 0 313 0C300 0 287 0 274 0C261 0 248 0 235 0C222 0 209 0 196 0C183 0 170 0 156.8 0C143.7 0 130.3 0 117.2 0C104 0 91 0 78 0C65 0 52 0 39 0C26 0 13 0 6.5 0L0 0Z" fill="#ff4255"></path><path d="M0 169L6.5 149C13 129 26 89 39 80C52 71 65 93 78 109C91 125 104 135 117.2 140C130.3 145 143.7 145 156.8 147C170 149 183 153 196 138C209 123 222 89 235 84C248 79 261 103 274 113C287 123 300 119 313 121C326 123 339 131 352 129C365 127 378 115 391 113C404 111 417 119 430.2 140C443.3 161 456.7 195 469.8 186C483 177 496 125 509 104C522 83 535 93 548 104C561 115 574 127 587 136C600 145 613 151 626 139C639 127 652 97 665 72C678 47 691 27 704 28C717 29 730 51 743.2 88C756.3 125 769.7 177 782.8 173C796 169 809 109 822 73C835 37 848 25 861 28C874 31 887 49 893.5 58L900 67L900 23L893.5 19.2C887 15.3 874 7.7 861 9.7C848 11.7 835 23.3 822 50.2C809 77 796 119 782.8 120C769.7 121 756.3 81 743.2 55C730 29 717 17 704 17C691 17 678 29 665 43C652 57 639 73 626 80C613 87 600 85 587 78C574 71 561 59 548 54C535 49 522 51 509 68C496 85 483 117 469.8 126C456.7 135 443.3 121 430.2 103C417 85 404 63 391 56C378 49 365 57 352 59C339 61 326 57 313 56C300 55 287 57 274 50C261 43 248 27 235 34C222 41 209 71 196 89C183 107 170 113 156.8 109C143.7 105 130.3 91 117.2 83C104 75 91 73 78 62C65 51 52 31 39 37C26 43 13 75 6.5 91L0 107Z" fill="#ff696b"></path><path d="M0 217L6.5 196C13 175 26 133 39 116C52 99 65 107 78 124C91 141 104 167 117.2 176C130.3 185 143.7 177 156.8 178C170 179 183 189 196 174C209 159 222 119 235 112C248 105 261 131 274 138C287 145 300 133 313 135C326 137 339 153 352 153C365 153 378 137 391 135C404 133 417 145 430.2 171C443.3 197 456.7 237 469.8 229C483 221 496 165 509 144C522 123 535 137 548 144C561 151 574 151 587 158C600 165 613 179 626 170C639 161 652 129 665 106C678 83 691 69 704 71C717 73 730 91 743.2 126C756.3 161 769.7 213 782.8 204C796 195 809 125 822 86C835 47 848 39 861 44C874 49 887 67 893.5 76L900 85L900 65L893.5 56C887 47 874 29 861 26C848 23 835 35 822 71C809 107 796 167 782.8 171C769.7 175 756.3 123 743.2 86C730 49 717 27 704 26C691 25 678 45 665 70C652 95 639 125 626 137C613 149 600 143 587 134C574 125 561 113 548 102C535 91 522 81 509 102C496 123 483 175 469.8 184C456.7 193 443.3 159 430.2 138C417 117 404 109 391 111C378 113 365 125 352 127C339 129 326 121 313 119C300 117 287 121 274 111C261 101 248 77 235 82C222 87 209 121 196 136C183 151 170 147 156.8 145C143.7 143 130.3 143 117.2 138C104 133 91 123 78 107C65 91 52 69 39 78C26 87 13 127 6.5 147L0 167Z" fill="#ff8782"></path><path d="M0 253L6.5 230C13 207 26 161 39 145C52 129 65 143 78 163C91 183 104 209 117.2 213C130.3 217 143.7 199 156.8 196C170 193 183 205 196 189C209 173 222 129 235 125C248 121 261 157 274 170C287 183 300 173 313 171C326 169 339 175 352 173C365 171 378 161 391 164C404 167 417 183 430.2 204C443.3 225 456.7 251 469.8 244C483 237 496 197 509 179C522 161 535 165 548 169C561 173 574 177 587 183C600 189 613 197 626 185C639 173 652 141 665 123C678 105 691 101 704 104C717 107 730 117 743.2 147C756.3 177 769.7 227 782.8 220C796 213 809 149 822 114C835 79 848 73 861 77C874 81 887 95 893.5 102L900 109L900 83L893.5 74C887 65 874 47 861 42C848 37 835 45 822 84C809 123 796 193 782.8 202C769.7 211 756.3 159 743.2 124C730 89 717 71 704 69C691 67 678 81 665 104C652 127 639 159 626 168C613 177 600 163 587 156C574 149 561 149 548 142C535 135 522 121 509 142C496 163 483 219 469.8 227C456.7 235 443.3 195 430.2 169C417 143 404 131 391 133C378 135 365 151 352 151C339 151 326 135 313 133C300 131 287 143 274 136C261 129 248 103 235 110C222 117 209 157 196 172C183 187 170 177 156.8 176C143.7 175 130.3 183 117.2 174C104 165 91 139 78 122C65 105 52 97 39 114C26 131 13 173 6.5 194L0 215Z" fill="#ffa39b"></path><path d="M0 295L6.5 276C13 257 26 219 39 203C52 187 65 193 78 207C91 221 104 243 117.2 253C130.3 263 143.7 261 156.8 259C170 257 183 255 196 234C209 213 222 173 235 170C248 167 261 201 274 214C287 227 300 219 313 218C326 217 339 223 352 221C365 219 378 209 391 211C404 213 417 227 430.2 243C443.3 259 456.7 277 469.8 274C483 271 496 247 509 228C522 209 535 195 548 202C561 209 574 237 587 251C600 265 613 265 626 239C639 213 652 161 665 142C678 123 691 137 704 145C717 153 730 155 743.2 187C756.3 219 769.7 281 782.8 273C796 265 809 187 822 144C835 101 848 93 861 100C874 107 887 129 893.5 140L900 151L900 107L893.5 100C887 93 874 79 861 75C848 71 835 77 822 112C809 147 796 211 782.8 218C769.7 225 756.3 175 743.2 145C730 115 717 105 704 102C691 99 678 103 665 121C652 139 639 171 626 183C613 195 600 187 587 181C574 175 561 171 548 167C535 163 522 159 509 177C496 195 483 235 469.8 242C456.7 249 443.3 223 430.2 202C417 181 404 165 391 162C378 159 365 169 352 171C339 173 326 167 313 169C300 171 287 181 274 168C261 155 248 119 235 123C222 127 209 171 196 187C183 203 170 191 156.8 194C143.7 197 130.3 215 117.2 211C104 207 91 181 78 161C65 141 52 127 39 143C26 159 13 205 6.5 228L0 251Z" fill="#ffbeb6"></path><path d="M0 295L6.5 281C13 267 26 239 39 226C52 213 65 215 78 230C91 245 104 273 117.2 281C130.3 289 143.7 277 156.8 278C170 279 183 293 196 279C209 265 222 223 235 211C248 199 261 217 274 230C287 243 300 251 313 258C326 265 339 271 352 270C365 269 378 261 391 256C404 251 417 249 430.2 257C443.3 265 456.7 283 469.8 280C483 277 496 253 509 233C522 213 535 197 548 211C561 225 574 269 587 291C600 313 613 313 626 288C639 263 652 213 665 187C678 161 691 159 704 166C717 173 730 189 743.2 228C756.3 267 769.7 329 782.8 322C796 315 809 239 822 191C835 143 848 123 861 128C874 133 887 163 893.5 178L900 193L900 149L893.5 138C887 127 874 105 861 98C848 91 835 99 822 142C809 185 796 263 782.8 271C769.7 279 756.3 217 743.2 185C730 153 717 151 704 143C691 135 678 121 665 140C652 159 639 211 626 237C613 263 600 263 587 249C574 235 561 207 548 200C535 193 522 207 509 226C496 245 483 269 469.8 272C456.7 275 443.3 257 430.2 241C417 225 404 211 391 209C378 207 365 217 352 219C339 221 326 215 313 216C300 217 287 225 274 212C261 199 248 165 235 168C222 171 209 211 196 232C183 253 170 255 156.8 257C143.7 259 130.3 261 117.2 251C104 241 91 219 78 205C65 191 52 185 39 201C26 217 13 255 6.5 274L0 293Z" fill="#ffc8c1"></path><path d="M0 331L6.5 317C13 303 26 275 39 264C52 253 65 259 78 274C91 289 104 313 117.2 318C130.3 323 143.7 309 156.8 315C170 321 183 347 196 328C209 309 222 245 235 232C248 219 261 257 274 276C287 295 300 295 313 293C326 291 339 287 352 286C365 285 378 287 391 281C404 275 417 261 430.2 266C443.3 271 456.7 295 469.8 298C483 301 496 283 509 265C522 247 535 229 548 238C561 247 574 283 587 307C600 331 613 343 626 319C639 295 652 235 665 210C678 185 691 195 704 202C717 209 730 213 743.2 244C756.3 275 769.7 333 782.8 337C796 341 809 291 822 248C835 205 848 169 861 163C874 157 887 181 893.5 193L900 205L900 191L893.5 176C887 161 874 131 861 126C848 121 835 141 822 189C809 237 796 313 782.8 320C769.7 327 756.3 265 743.2 226C730 187 717 171 704 164C691 157 678 159 665 185C652 211 639 261 626 286C613 311 600 311 587 289C574 267 561 223 548 209C535 195 522 211 509 231C496 251 483 275 469.8 278C456.7 281 443.3 263 430.2 255C417 247 404 249 391 254C378 259 365 267 352 268C339 269 326 263 313 256C300 249 287 241 274 228C261 215 248 197 235 209C222 221 209 263 196 277C183 291 170 277 156.8 276C143.7 275 130.3 287 117.2 279C104 271 91 243 78 228C65 213 52 211 39 224C26 237 13 265 6.5 279L0 293Z" fill="#ffc8c1"></path><path d="M0 391L6.5 379C13 367 26 343 39 338C52 333 65 347 78 379C91 411 104 461 117.2 482C130.3 503 143.7 495 156.8 487C170 479 183 471 196 425C209 379 222 295 235 291C248 287 261 363 274 381C287 399 300 359 313 379C326 399 339 479 352 512C365 545 378 531 391 495C404 459 417 401 430.2 370C443.3 339 456.7 335 469.8 336C483 337 496 343 509 352C522 361 535 373 548 382C561 391 574 397 587 410C600 423 613 443 626 439C639 435 652 407 665 368C678 329 691 279 704 274C717 269 730 309 743.2 353C756.3 397 769.7 445 782.8 438C796 431 809 369 822 326C835 283 848 259 861 277C874 295 887 355 893.5 385L900 415L900 203L893.5 191C887 179 874 155 861 161C848 167 835 203 822 246C809 289 796 339 782.8 335C769.7 331 756.3 273 743.2 242C730 211 717 207 704 200C691 193 678 183 665 208C652 233 639 293 626 317C613 341 600 329 587 305C574 281 561 245 548 236C535 227 522 245 509 263C496 281 483 299 469.8 296C456.7 293 443.3 269 430.2 264C417 259 404 273 391 279C378 285 365 283 352 284C339 285 326 289 313 291C300 293 287 293 274 274C261 255 248 217 235 230C222 243 209 307 196 326C183 345 170 319 156.8 313C143.7 307 130.3 321 117.2 316C104 311 91 287 78 272C65 257 52 251 39 262C26 273 13 301 6.5 315L0 329Z" fill="#ffbeb6"></path><path d="M0 415L6.5 404C13 393 26 371 39 370C52 369 65 389 78 419C91 449 104 489 117.2 502C130.3 515 143.7 501 156.8 493C170 485 183 483 196 445C209 407 222 333 235 327C248 321 261 383 274 400C287 417 300 389 313 408C326 427 339 493 352 519C365 545 378 531 391 505C404 479 417 441 430.2 411C443.3 381 456.7 359 469.8 359C483 359 496 381 509 394C522 407 535 411 548 411C561 411 574 407 587 421C600 435 613 467 626 471C639 475 652 451 665 414C678 377 691 327 704 319C717 311 730 345 743.2 381C756.3 417 769.7 455 782.8 444C796 433 809 373 822 331C835 289 848 265 861 289C874 313 887 385 893.5 421L900 457L900 413L893.5 383C887 353 874 293 861 275C848 257 835 281 822 324C809 367 796 429 782.8 436C769.7 443 756.3 395 743.2 351C730 307 717 267 704 272C691 277 678 327 665 366C652 405 639 433 626 437C613 441 600 421 587 408C574 395 561 389 548 380C535 371 522 359 509 350C496 341 483 335 469.8 334C456.7 333 443.3 337 430.2 368C417 399 404 457 391 493C378 529 365 543 352 510C339 477 326 397 313 377C300 357 287 397 274 379C261 361 248 285 235 289C222 293 209 377 196 423C183 469 170 477 156.8 485C143.7 493 130.3 501 117.2 480C104 459 91 409 78 377C65 345 52 331 39 336C26 341 13 365 6.5 377L0 389Z" fill="#ffa39b"></path><path d="M0 547L6.5 538C13 529 26 511 39 502C52 493 65 493 78 501C91 509 104 525 117.2 528C130.3 531 143.7 521 156.8 517C170 513 183 515 196 507C209 499 222 481 235 488C248 495 261 527 274 534C287 541 300 523 313 524C326 525 339 545 352 548C365 551 378 537 391 519C404 501 417 479 430.2 485C443.3 491 456.7 525 469.8 527C483 529 496 499 509 499C522 499 535 529 548 543C561 557 574 555 587 548C600 541 613 529 626 526C639 523 652 529 665 525C678 521 691 507 704 507C717 507 730 521 743.2 534C756.3 547 769.7 559 782.8 564C796 569 809 567 822 551C835 535 848 505 861 496C874 487 887 499 893.5 505L900 511L900 455L893.5 419C887 383 874 311 861 287C848 263 835 287 822 329C809 371 796 431 782.8 442C769.7 453 756.3 415 743.2 379C730 343 717 309 704 317C691 325 678 375 665 412C652 449 639 473 626 469C613 465 600 433 587 419C574 405 561 409 548 409C535 409 522 405 509 392C496 379 483 357 469.8 357C456.7 357 443.3 379 430.2 409C417 439 404 477 391 503C378 529 365 543 352 517C339 491 326 425 313 406C300 387 287 415 274 398C261 381 248 319 235 325C222 331 209 405 196 443C183 481 170 483 156.8 491C143.7 499 130.3 513 117.2 500C104 487 91 447 78 417C65 387 52 367 39 368C26 369 13 391 6.5 402L0 413Z" fill="#ff8782"></path><path d="M0 559L6.5 555C13 551 26 543 39 532C52 521 65 507 78 512C91 517 104 541 117.2 548C130.3 555 143.7 545 156.8 546C170 547 183 559 196 553C209 547 222 523 235 528C248 533 261 567 274 571C287 575 300 549 313 547C326 545 339 567 352 575C365 583 378 577 391 560C404 543 417 515 430.2 514C443.3 513 456.7 539 469.8 545C483 551 496 537 509 543C522 549 535 575 548 588C561 601 574 601 587 592C600 583 613 565 626 558C639 551 652 555 665 555C678 555 691 551 704 552C717 553 730 559 743.2 564C756.3 569 769.7 573 782.8 576C796 579 809 581 822 574C835 567 848 551 861 544C874 537 887 539 893.5 540L900 541L900 509L893.5 503C887 497 874 485 861 494C848 503 835 533 822 549C809 565 796 567 782.8 562C769.7 557 756.3 545 743.2 532C730 519 717 505 704 505C691 505 678 519 665 523C652 527 639 521 626 524C613 527 600 539 587 546C574 553 561 555 548 541C535 527 522 497 509 497C496 497 483 527 469.8 525C456.7 523 443.3 489 430.2 483C417 477 404 499 391 517C378 535 365 549 352 546C339 543 326 523 313 522C300 521 287 539 274 532C261 525 248 493 235 486C222 479 209 497 196 505C183 513 170 511 156.8 515C143.7 519 130.3 529 117.2 526C104 523 91 507 78 499C65 491 52 491 39 500C26 509 13 527 6.5 536L0 545Z" fill="#ff696b"></path><path d="M0 601L6.5 601C13 601 26 601 39 601C52 601 65 601 78 601C91 601 104 601 117.2 601C130.3 601 143.7 601 156.8 601C170 601 183 601 196 601C209 601 222 601 235 601C248 601 261 601 274 601C287 601 300 601 313 601C326 601 339 601 352 601C365 601 378 601 391 601C404 601 417 601 430.2 601C443.3 601 456.7 601 469.8 601C483 601 496 601 509 601C522 601 535 601 548 601C561 601 574 601 587 601C600 601 613 601 626 601C639 601 652 601 665 601C678 601 691 601 704 601C717 601 730 601 743.2 601C756.3 601 769.7 601 782.8 601C796 601 809 601 822 601C835 601 848 601 861 601C874 601 887 601 893.5 601L900 601L900 539L893.5 538C887 537 874 535 861 542C848 549 835 565 822 572C809 579 796 577 782.8 574C769.7 571 756.3 567 743.2 562C730 557 717 551 704 550C691 549 678 553 665 553C652 553 639 549 626 556C613 563 600 581 587 590C574 599 561 599 548 586C535 573 522 547 509 541C496 535 483 549 469.8 543C456.7 537 443.3 511 430.2 512C417 513 404 541 391 558C378 575 365 581 352 573C339 565 326 543 313 545C300 547 287 573 274 569C261 565 248 531 235 526C222 521 209 545 196 551C183 557 170 545 156.8 544C143.7 543 130.3 553 117.2 546C104 539 91 515 78 510C65 505 52 519 39 530C26 541 13 549 6.5 553L0 557Z" fill="#ff4255"></path></svg>